<svg width="3086" height="599" viewBox="0 0 3086 599" fill="none" xmlns="http://www.w3.org/2000/svg">
<path d="M405.3 341.652V286.102L235.89 286.028L235.86 205.074L496.752 205.03L496.737 378.651L379.897 486.386L116.039 486.549L0.0296586 379.882L0 110.152L116.988 0.370733L458.997 0L459.501 89.4207L159.252 89.4059L94.2699 147.092L92.9946 199.528L93.0539 228.757L93.1725 344.307L158.822 403.802L337.085 403.594L405.3 341.652Z" fill="white"/>
<path d="M1491.9 239.819L1451.52 199.587L1385.87 199.128L1335.87 245.202V483.494L1248.05 483.583L1248.02 239.152L1205.46 199.142L1140.46 199.765L1091.93 243.69L1091.69 483.465L1004.48 483.494L1004.28 119.257L1090.8 117.922L1093.05 156.004L1135.49 117.922L1250.14 117.863L1303.01 167.823L1356.63 118.056L1497.48 117.804L1579.44 195.672L1579.53 483.405L1491.8 483.554L1491.9 239.819Z" fill="white"/>
<path d="M2198.9 483.05L2198.62 286.339L1949.8 286.221L1949.74 483.124L1859.54 482.694C1860.47 452.413 1860.41 428.878 1860.35 402.201L1860.11 290.447L1860.17 187.398L1859.77 5.76884L1949.7 5.66504L1949.83 204.867H2198.31L2198.73 5.7985L2287.3 6.49548L2287.38 482.679L2239.85 483.08H2198.92L2198.9 483.05Z" fill="#32DD9F"/>
<path d="M3085.68 195.035L3085.93 410.52L3012.38 483.45L2861.03 483.599L2828.35 453.896L2826.02 483.747L2745.99 482.531L2745.63 4.93848L2828.35 5.23506L2828.57 148.664C2838.12 142.243 2847.61 133.034 2858.5 122.757L3010.13 122.446L3033.04 143.4L3085.68 195.02V195.035ZM2969.84 407.465L3003.36 373.684L3003.62 232.479L2971.11 200.67L2863.33 200.7L2828.32 231.397L2828.47 375.701C2840.75 387.223 2854.14 398.834 2866.59 407.51L2969.84 407.45V407.465Z" fill="#32DD9F"/>
<path d="M873.757 329.374L755.034 598.822L576.919 599L577.186 519.589L694.768 519.322C700.225 508.675 705.148 497.834 709.152 486.609L537.147 118.13L634.828 117.715L754.886 382.492L869.427 117.552L965.002 118.397L873.742 329.374H873.757Z" fill="white"/>
<path d="M2602.66 123.587L2683.63 122.683L2683.55 482.115C2656.45 484.503 2631.76 483.583 2604.86 481.759L2602.71 451.404L2570.56 483.509L2486.33 482.842L2428.49 483.91L2354.37 413.278L2354.46 122.712L2435.37 123.32L2435.61 318.77L2434.01 373.772L2470.49 407.702L2564.83 407.524C2577.67 397.173 2592.55 383.782 2602.88 372.156L2603.17 337.767L2602.54 182.726L2602.66 123.602V123.587Z" fill="#32DD9F"/>
</svg>
